# xmcd
#
# Track frame offsets: 
#        150
#        6065
#        21416
#        38783
#        59616
#        81064
#        102424
#        122097
#        143434
#        166902
#        187872
#        207874
#        225719
#        232587
#        246497
#        265374
#
# Disc length: 4063 seconds
#
# Revision: 6
# Processed by: cddbd v1.5.2PL0 Copyright (c) Steve Scherf et al.
# Submitted via: ExactAudioCopyFreeDBPlugin 1.0
#
DISCID=cd0fdd10
DTITLE=Jill Scott - Vol. 2: Beautifully Human
DYEAR=2004
DGENRE=R&B
TTITLE0=Warm Up
TTITLE1=I'm Not Afraid
TTITLE2=Golden
TTITLE3=The Fact Is (I Need You)
TTITLE4=Spring Summer Feeling
TTITLE5=Cross My Mind
TTITLE6=Bedda At Home
TTITLE7=Talk To Me
TTITLE8=Family Reunion
TTITLE9=Can't Explain (42nd Street Happenstance)
TTITLE10=Whatever
TTITLE11=Not Like Crazy
TTITLE12=Nothing (Interlude)
TTITLE13=Rasool
TTITLE14=My Petition
TTITLE15=I Keep
EXTD=Updated and submitted by Slice!! in Detroit YEAR: 2004
EXTT0=
EXTT1=
EXTT2=
EXTT3=
EXTT4=
EXTT5=
EXTT6=
EXTT7=
EXTT8=
EXTT9=
EXTT10=
EXTT11=
EXTT12=
EXTT13=
EXTT14=
EXTT15=
PLAYORDER=
